<svg style="max-width: 100%; height: auto; font: 10px sans-serif; margin: 0px;" viewBox="-651.4986572265625,-527.2108764648438,1163.669189453125,1019.41455078125" xmlns="http://www.w3.org/2000/svg" xmlns:xlink="http://www.w3.org/1999/xlink"><g fill="none" stroke="#555" stroke-opacity="0.4" stroke-width="1.5"><path d="M0,0C-15.197175712861737,83.74334054072781,34.61780762178479,-77.75286895047026,69.23561524356958,-155.50573790094052"/><path d="M0,0C-15.197175712861737,83.74334054072781,66.54254617450121,-53.06590980264332,133.08509234900242,-106.13181960528664"/><path d="M0,0C-15.197175712861737,83.74334054072781,72.40232559072246,-44.741529741649614,144.8046511814449,-89.48305948329923"/><path d="M0,0C-15.197175712861737,83.74334054072781,77.22630667099828,-35.777070765014116,154.45261334199657,-71.55414153002823"/><path d="M0,0C-15.197175712861737,83.74334054072781,80.94547683134307,-26.300779743467746,161.89095366268614,-52.60155948693549"/><path d="M0,0C-15.197175712861737,83.74334054072781,83.50662907554847,-16.44822589237708,167.01325815109695,-32.89645178475416"/><path d="M0,0C-15.197175712861737,83.74334054072781,84.87312318230933,-6.360361298577874,169.74624636461866,-12.720722597155747"/><path d="M0,0C-15.197175712861737,83.74334054072781,85.02540988562745,3.818495560943826,170.0508197712549,7.636991121887652"/><path d="M0,0C-15.197175712861737,83.74334054072781,83.96131054949083,13.942724460443948,167.92262109898166,27.885448920887896"/><path d="M0,0C-15.197175712861737,83.74334054072781,81.69604833576145,23.867486689822023,163.3920966715229,47.734973379644046"/><path d="M0,0C-15.197175712861737,83.74334054072781,78.26203041937903,33.450797138545056,156.52406083875806,66.90159427709011"/><path d="M0,0C-15.197175712861737,83.74334054072781,57.89025745916935,62.390859313516344,115.7805149183387,124.78171862703269"/><path d="M0,0C-15.197175712861737,83.74334054072781,27.50873306779069,80.54297511001776,55.01746613558138,161.08595022003553"/><path d="M0,0C-15.197175712861737,83.74334054072781,17.695595018489286,83.25122912912168,35.39119003697857,166.50245825824337"/><path d="M0,0C-15.197175712861737,83.74334054072781,7.629301180003345,84.76847880003923,15.25860236000669,169.53695760007847"/><path d="M0,0C-15.197175712861737,83.74334054072781,-2.546138565084377,85.07301812546262,-5.092277130168754,170.14603625092525"/><path d="M0,0C-15.197175712861737,83.74334054072781,-12.685152876772188,84.16049032093872,-25.370305753544375,168.32098064187744"/><path d="M0,0C-15.197175712861737,83.74334054072781,-22.642691522674788,82.0439501436693,-45.285383045349576,164.0879002873386"/><path d="M0,0C-15.197175712861737,83.74334054072781,-32.27630048801593,78.75367712923126,-64.55260097603185,157.50735425846253"/><path d="M0,0C-15.197175712861737,83.74334054072781,-41.44815994374949,74.33674240808014,-82.89631988749898,148.67348481616028"/><path d="M0,0C-15.197175712861737,83.74334054072781,-50.02705591733715,68.85633529902331,-100.0541118346743,137.71267059804663"/><path d="M0,0C-15.197175712861737,83.74334054072781,-57.890257459169376,62.39085931351632,-115.78051491833875,124.78171862703265"/><path d="M0,0C-15.197175712861737,83.74334054072781,-74.94846415580682,40.331488383813,-149.89692831161364,80.662976767626"/><path d="M0,0C-15.197175712861737,83.74334054072781,-83.96131054949083,13.942724460443902,-167.92262109898166,27.885448920887804"/><path d="M0,0C-15.197175712861737,83.74334054072781,-85.02540988562744,3.8184955609438367,-170.05081977125488,7.636991121887673"/><path d="M0,0C-15.197175712861737,83.74334054072781,-84.87312318230933,-6.360361298577901,-169.74624636461866,-12.720722597155802"/><path d="M0,0C-15.197175712861737,83.74334054072781,-83.50662907554846,-16.44822589237713,-167.01325815109692,-32.89645178475426"/><path d="M0,0C-15.197175712861737,83.74334054072781,-80.94547683134309,-26.300779743467736,-161.89095366268617,-52.60155948693547"/><path d="M0,0C-15.197175712861737,83.74334054072781,-77.22630667099827,-35.777070765014145,-154.45261334199654,-71.55414153002829"/><path d="M0,0C-15.197175712861737,83.74334054072781,-66.54254617450121,-53.06590980264331,-133.08509234900242,-106.13181960528662"/><path d="M0,0C-15.197175712861737,83.74334054072781,-50.02705591733717,-68.8563352990233,-100.05411183467434,-137.7126705980466"/><path d="M0,0C-15.197175712861737,83.74334054072781,-39.205790782798225,-75.54341270860985,-78.41158156559645,-151.0868254172197"/><path d="M0,0C-15.197175712861737,83.74334054072781,-27.5087330677907,-80.54297511001776,-55.0174661355814,-161.08595022003553"/><path d="M0,0C-15.197175712861737,83.74334054072781,-15.197175712861757,-83.74334054072781,-30.394351425723514,-167.48668108145563"/><path d="M0,0C-15.197175712861737,83.74334054072781,-5.089997991321788,-84.95877326689835,-10.179995982643575,-169.9175465337967"/><path d="M69.23561524356958,-155.50573790094052C103.85342286535436,-233.25860685141078,15.269993973965388,-254.87631980069506,20.359991965287183,-339.8350930675934"/><path d="M69.23561524356958,-155.50573790094052C103.85342286535436,-233.25860685141078,30.48532533260909,-253.5069151926158,40.647100443478784,-338.00922025682104"/><path d="M69.23561524356958,-155.50573790094052C103.85342286535436,-233.25860685141078,45.59152713858524,-251.23002162218344,60.788702851446985,-334.97336216291126"/><path d="M69.23561524356958,-155.50573790094052C103.85342286535436,-233.25860685141078,60.53452311002369,-248.05378977744547,80.7126974800316,-330.7383863699273"/><path d="M69.23561524356958,-155.50573790094052C103.85342286535436,-233.25860685141078,75.26082119958424,-243.98958974406125,100.34776159944565,-325.31945299208166"/><path d="M69.23561524356958,-155.50573790094052C103.85342286535436,-233.25860685141078,89.71770508210285,-239.05197030334625,119.62360677613714,-318.73596040446165"/><path d="M69.23561524356958,-155.50573790094052C103.85342286535436,-233.25860685141078,103.85342286535436,-233.25860685141078,138.47123048713917,-311.01147580188103"/><path d="M69.23561524356958,-155.50573790094052C103.85342286535436,-233.25860685141078,117.61737234839481,-226.63023812582946,156.82316313119307,-302.1736508344393"/><path d="M69.23561524356958,-155.50573790094052C103.85342286535436,-233.25860685141078,130.96028216430804,-219.19059196634316,174.6137095524107,-292.2541226217909"/><path d="M69.23561524356958,-155.50573790094052C103.85342286535436,-233.25860685141078,143.8343881589115,-210.96630037535067,191.779184211882,-281.28840050046756"/><path d="M69.23561524356958,-155.50573790094052C103.85342286535436,-233.25860685141078,156.19360437403165,-201.98680418225246,208.25813916537555,-269.31573890966996"/><path d="M69.23561524356958,-155.50573790094052C103.85342286535436,-233.25860685141078,167.99368802327328,-192.28424765292198,223.99158403103104,-256.3789968705626"/><path d="M69.23561524356958,-155.50573790094052C103.85342286535436,-233.25860685141078,179.1923978697125,-181.8933634215767,238.92319715961665,-242.52448456210226"/><path d="M133.08509234900242,-106.13181960528664C199.6276385235036,-159.19772940792996,199.6276385235036,-159.19772940792996,266.17018469800485,-212.26363921057327"/><path d="M144.8046511814449,-89.48305948329923C217.20697677216737,-134.22458922494883,217.20697677216737,-134.22458922494883,289.6093023628898,-178.96611896659846"/><path d="M154.45261334199657,-71.55414153002823C231.67892001299484,-107.33121229504235,231.67892001299484,-107.33121229504235,308.90522668399313,-143.10828306005646"/><path d="M161.89095366268614,-52.60155948693549C242.8364304940292,-78.90233923040324,242.8364304940292,-78.90233923040324,323.7819073253723,-105.20311897387099"/><path d="M167.01325815109695,-32.89645178475416C250.51988722664544,-49.344677677131244,250.51988722664544,-49.344677677131244,334.0265163021939,-65.79290356950833"/><path d="M169.74624636461866,-12.720722597155747C254.619369546928,-19.08108389573362,254.619369546928,-19.08108389573362,339.4924927292373,-25.441445194311495"/><path d="M170.0508197712549,7.636991121887652C255.07622965688236,11.455486682831477,255.07622965688236,11.455486682831477,340.1016395425098,15.273982243775304"/><path d="M167.92262109898166,27.885448920887896C251.8839316484725,41.828173381331844,251.8839316484725,41.828173381331844,335.84524219796333,55.77089784177579"/><path d="M163.3920966715229,47.734973379644046C245.0881450072843,71.60246006946606,245.0881450072843,71.60246006946606,326.7841933430458,95.46994675928809"/><path d="M156.52406083875806,66.90159427709011C234.78609125813708,100.35239141563517,234.78609125813708,100.35239141563517,313.0481216775161,133.80318855418022"/><path d="M115.7805149183387,124.78171862703269C173.67077237750806,187.17257794054902,221.12515309962663,127.66666666666673,294.8335374661688,170.2222222222223"/><path d="M115.7805149183387,124.78171862703269C173.67077237750806,187.17257794054902,213.09437078350595,140.66236259743684,284.1258277113413,187.54981679658246"/><path d="M115.7805149183387,124.78171862703269C173.67077237750806,187.17257794054902,204.30076592552803,153.15452377698065,272.40102123403733,204.20603170264087"/><path d="M115.7805149183387,124.78171862703269C173.67077237750806,187.17257794054902,194.77581734883202,165.09843151043424,259.7010897984427,220.1312420139123"/><path d="M115.7805149183387,124.78171862703269C173.67077237750806,187.17257794054902,184.55362189726065,176.45132970797945,246.0714958630142,235.26843961063926"/><path d="M115.7805149183387,124.78171862703269C173.67077237750806,187.17257794054902,173.67077237750806,187.17257794054902,231.5610298366774,249.56343725406538"/><path d="M115.7805149183387,124.78171862703269C173.67077237750806,187.17257794054902,162.1662265663696,197.22379692201446,216.22163542182614,262.96506256268594"/><path d="M115.7805149183387,124.78171862703269C173.67077237750806,187.17257794054902,150.08116775201148,206.56900589706993,200.10822366934863,275.42534119609326"/><path d="M115.7805149183387,124.78171862703269C173.67077237750806,187.17257794054902,137.45885730848755,215.174751442998,183.27847641131672,286.899668590664"/><path d="M115.7805149183387,124.78171862703269C173.67077237750806,187.17257794054902,124.34447983124838,223.0102272242405,165.79263977499784,297.3469696323207"/><path d="M115.7805149183387,124.78171862703269C173.67077237750806,187.17257794054902,110.78498138801652,230.04738427108435,147.71330851735536,306.72984569477916"/><path d="M55.01746613558138,161.08595022003553C82.52619920337207,241.62892533005328,82.52619920337207,241.62892533005328,110.03493227116276,322.17190044007106"/><path d="M35.39119003697857,166.50245825824337C53.08678505546786,249.75368738736506,53.08678505546786,249.75368738736506,70.78238007395714,333.00491651648673"/><path d="M15.25860236000669,169.53695760007847C22.887903540010033,254.3054364001177,22.887903540010033,254.3054364001177,30.51720472001338,339.07391520015693"/><path d="M-5.092277130168754,170.14603625092525C-7.638415695253132,255.21905437638785,-7.638415695253132,255.21905437638785,-10.184554260337508,340.2920725018505"/><path d="M-25.370305753544375,168.32098064187744C-38.055458630316565,252.48147096281616,-38.055458630316565,252.48147096281616,-50.74061150708875,336.6419612837549"/><path d="M-45.285383045349576,164.0879002873386C-67.92807456802437,246.1318504310079,-67.92807456802437,246.1318504310079,-90.57076609069915,328.1758005746772"/><path d="M-64.55260097603185,157.50735425846253C-96.82890146404777,236.2610313876938,-96.82890146404777,236.2610313876938,-129.1052019520637,315.01470851692505"/><path d="M-82.89631988749898,148.67348481616028C-124.34447983124845,223.01022722424045,-124.34447983124845,223.01022722424045,-165.79263977499795,297.34696963232057"/><path d="M-100.0541118346743,137.71267059804663C-150.08116775201145,206.56900589706993,-150.08116775201145,206.56900589706993,-200.1082236693486,275.42534119609326"/><path d="M-115.78051491833875,124.78171862703265C-173.67077237750814,187.17257794054896,-173.67077237750814,187.17257794054896,-231.5610298366775,249.5634372540653"/><path d="M-149.89692831161364,80.662976767626C-224.84539246742045,120.99446515143902,-194.77581734883213,165.0984315104341,-259.70108979844287,220.13124201391213"/><path d="M-149.89692831161364,80.662976767626C-224.84539246742045,120.99446515143902,-204.30076592552805,153.15452377698057,-272.4010212340374,204.20603170264076"/><path d="M-149.89692831161364,80.662976767626C-224.84539246742045,120.99446515143902,-213.09437078350592,140.66236259743687,-284.12582771134123,187.54981679658252"/><path d="M-149.89692831161364,80.662976767626C-224.84539246742045,120.99446515143902,-221.12515309962674,127.66666666666656,-294.833537466169,170.2222222222221"/><path d="M-149.89692831161364,80.662976767626C-224.84539246742045,120.99446515143902,-228.36436475747135,114.21395720325816,-304.48581967662847,152.28527627101087"/><path d="M-149.89692831161364,80.662976767626C-224.84539246742045,120.99446515143902,-234.78609125813705,100.3523914156352,-313.04812167751606,133.80318855418025"/><path d="M-149.89692831161364,80.662976767626C-224.84539246742045,120.99446515143902,-240.3673444874173,86.13159011174915,-320.48979264988975,114.84212014899886"/><path d="M-149.89692831161364,80.662976767626C-224.84539246742045,120.99446515143902,-245.08814500728434,71.60246006946599,-326.7841933430458,95.46994675928799"/><path d="M-167.92262109898166,27.885448920887804C-251.88393164847253,41.8281733813317,-251.88393164847253,41.8281733813317,-335.84524219796333,55.77089784177561"/><path d="M-170.05081977125488,7.636991121887673C-255.07622965688233,11.45548668283151,-255.07622965688233,11.45548668283151,-340.10163954250976,15.273982243775347"/><path d="M-169.74624636461866,-12.720722597155802C-254.619369546928,-19.081083895733702,-254.619369546928,-19.081083895733702,-339.4924927292373,-25.441445194311605"/><path d="M-167.01325815109692,-32.89645178475426C-250.5198872266454,-49.344677677131386,-250.5198872266454,-49.344677677131386,-334.02651630219384,-65.79290356950852"/><path d="M-161.89095366268617,-52.60155948693547C-242.83643049402923,-78.90233923040321,-242.83643049402923,-78.90233923040321,-323.78190732537234,-105.20311897387094"/><path d="M-154.45261334199654,-71.55414153002829C-231.6789200129948,-107.33121229504242,-231.6789200129948,-107.33121229504242,-308.9052266839931,-143.10828306005658"/><path d="M-133.08509234900242,-106.13181960528662C-199.62763852350363,-159.19772940792993,-217.2069767721673,-134.22458922494894,-289.60930236288976,-178.9661189665986"/><path d="M-133.08509234900242,-106.13181960528662C-199.62763852350363,-159.19772940792993,-208.79101647298478,-146.97422410507534,-278.3880219639797,-195.96563214010044"/><path d="M-133.08509234900242,-106.13181960528662C-199.62763852350363,-159.19772940792993,-199.62763852350363,-159.19772940792993,-266.17018469800485,-212.26363921057325"/><path d="M-133.08509234900242,-106.13181960528662C-199.62763852350363,-159.19772940792993,-189.74964543856126,-170.8513481569619,-252.999527251415,-227.80179754261587"/><path d="M-133.08509234900242,-106.13181960528662C-199.62763852350363,-159.19772940792993,-179.19239786971244,-181.89336342157674,-238.9231971596166,-242.5244845621023"/><path d="M-100.05411183467434,-137.7126705980466C-150.0811677520115,-206.5690058970699,-156.19360437403154,-201.98680418225254,-208.25813916537538,-269.3157389096701"/><path d="M-100.05411183467434,-137.7126705980466C-150.0811677520115,-206.5690058970699,-143.83438815891148,-210.9663003753507,-191.77918421188198,-281.2884005004676"/><path d="M-78.41158156559645,-151.0868254172197C-117.61737234839468,-226.63023812582955,-117.61737234839468,-226.63023812582955,-156.8231631311929,-302.1736508344394"/><path d="M-55.0174661355814,-161.08595022003553C-82.5261992033721,-241.62892533005328,-89.71770508210288,-239.05197030334625,-119.62360677613717,-318.73596040446165"/><path d="M-55.0174661355814,-161.08595022003553C-82.5261992033721,-241.62892533005328,-75.26082119958411,-243.9895897440613,-100.34776159944548,-325.3194529920818"/><path d="M-30.394351425723514,-167.48668108145563C-45.59152713858527,-251.23002162218344,-45.59152713858527,-251.23002162218344,-60.78870285144703,-334.97336216291126"/><path d="M-10.179995982643575,-169.9175465337967C-15.269993973965363,-254.87631980069506,-15.269993973965363,-254.87631980069506,-20.35999196528715,-339.8350930675934"/><path d="M231.5610298366774,249.56343725406538C289.4512872958467,311.9542965675817,289.4512872958467,311.9542965675817,347.3415447550161,374.34515588109804"/><path d="M-335.84524219796333,55.77089784177561C-419.8065527474542,69.7136223022195,-419.8065527474542,69.7136223022195,-503.76786329694505,83.6563467626634"/></g><g stroke-linejoin="round" stroke-width="3"><g transform="&#10;        rotate(170.5714285714286)&#10;        translate(510.6666666666667,0)&#10;      "><text dy="0.31em" x="-6" text-anchor="end" transform="rotate(180)" font-size="" stroke="white">Hydrocarbons, Air pollution  PAH</text><circle fill="#999" r="2.5"/><text dy="0.31em" x="-6" text-anchor="end" transform="rotate(180)" font-size="">Hydrocarbons, Air pollution  PAH</text></g><g transform="&#10;        rotate(47.14285714285714)&#10;        translate(510.6666666666667,0)&#10;      "><text dy="0.31em" x="6" text-anchor="start" font-size="" stroke="white">Monthly, Meteorology  monthly</text><circle fill="#999" r="2.5"/><text dy="0.31em" x="6" text-anchor="start" font-size="">Monthly, Meteorology  monthly</text></g><g transform="&#10;        rotate(266.57142857142856)&#10;        translate(340.44444444444446,0)&#10;      "><text dy="0.31em" x="-6" text-anchor="end" transform="rotate(180)" font-size="" stroke="white">Heat wave, Heat waves</text><circle fill="#999" r="2.5"/><text dy="0.31em" x="-6" text-anchor="end" transform="rotate(180)" font-size="">Heat wave, Heat waves</text></g><g transform="&#10;        rotate(259.7142857142857)&#10;        translate(340.44444444444446,0)&#10;      "><text dy="0.31em" x="-6" text-anchor="end" transform="rotate(180)" font-size="" stroke="white">Children, Children</text><circle fill="#999" r="2.5"/><text dy="0.31em" x="-6" text-anchor="end" transform="rotate(180)" font-size="">Children, Children</text></g><g transform="&#10;        rotate(252.8571428571429)&#10;        translate(340.44444444444446,0)&#10;      "><text dy="0.31em" x="-6" text-anchor="end" transform="rotate(180)" font-size="" stroke="white">Disaster, Natural disasters &amp; responses</text><circle fill="#999" r="2.5"/><text dy="0.31em" x="-6" text-anchor="end" transform="rotate(180)" font-size="">Disaster, Natural disasters &amp; responses</text></g><g transform="&#10;        rotate(249.42857142857144)&#10;        translate(340.44444444444446,0)&#10;      "><text dy="0.31em" x="-6" text-anchor="end" transform="rotate(180)" font-size="" stroke="white">Mental/hurricane, Mental impacts of hurricanes</text><circle fill="#999" r="2.5"/><text dy="0.31em" x="-6" text-anchor="end" transform="rotate(180)" font-size="">Mental/hurricane, Mental impacts of hurricanes</text></g><g transform="&#10;        rotate(242.57142857142856)&#10;        translate(340.44444444444446,0)&#10;      "><text dy="0.31em" x="-6" text-anchor="end" transform="rotate(180)" font-size="" stroke="white">Malaria, Malaria</text><circle fill="#999" r="2.5"/><text dy="0.31em" x="-6" text-anchor="end" transform="rotate(180)" font-size="">Malaria, Malaria</text></g><g transform="&#10;        rotate(235.71428571428572)&#10;        translate(340.44444444444446,0)&#10;      "><text dy="0.31em" x="-6" text-anchor="end" transform="rotate(180)" font-size="" stroke="white">Urban, Urban areas &amp; urban heat island</text><circle fill="#999" r="2.5"/><text dy="0.31em" x="-6" text-anchor="end" transform="rotate(180)" font-size="">Urban, Urban areas &amp; urban heat island</text></g><g transform="&#10;        rotate(232.28571428571428)&#10;        translate(340.44444444444446,0)&#10;      "><text dy="0.31em" x="-6" text-anchor="end" transform="rotate(180)" font-size="" stroke="white">Heat stress, Heat stress</text><circle fill="#999" r="2.5"/><text dy="0.31em" x="-6" text-anchor="end" transform="rotate(180)" font-size="">Heat stress, Heat stress</text></g><g transform="&#10;        rotate(225.42857142857144)&#10;        translate(340.44444444444446,0)&#10;      "><text dy="0.31em" x="-6" text-anchor="end" transform="rotate(180)" font-size="" stroke="white">Climate change, Impacts of climate change</text><circle fill="#999" r="2.5"/><text dy="0.31em" x="-6" text-anchor="end" transform="rotate(180)" font-size="">Climate change, Impacts of climate change</text></g><g transform="&#10;        rotate(222)&#10;        translate(340.44444444444446,0)&#10;      "><text dy="0.31em" x="-6" text-anchor="end" transform="rotate(180)" font-size="" stroke="white">Health, Public health</text><circle fill="#999" r="2.5"/><text dy="0.31em" x="-6" text-anchor="end" transform="rotate(180)" font-size="">Health, Public health</text></g><g transform="&#10;        rotate(218.5714285714286)&#10;        translate(340.44444444444446,0)&#10;      "><text dy="0.31em" x="-6" text-anchor="end" transform="rotate(180)" font-size="" stroke="white">Household, Households &amp; rural communities</text><circle fill="#999" r="2.5"/><text dy="0.31em" x="-6" text-anchor="end" transform="rotate(180)" font-size="">Household, Households &amp; rural communities</text></g><g transform="&#10;        rotate(215.14285714285717)&#10;        translate(340.44444444444446,0)&#10;      "><text dy="0.31em" x="-6" text-anchor="end" transform="rotate(180)" font-size="" stroke="white">Adaptation, Adaptation strategies</text><circle fill="#999" r="2.5"/><text dy="0.31em" x="-6" text-anchor="end" transform="rotate(180)" font-size="">Adaptation, Adaptation strategies</text></g><g transform="&#10;        rotate(211.71428571428572)&#10;        translate(340.44444444444446,0)&#10;      "><text dy="0.31em" x="-6" text-anchor="end" transform="rotate(180)" font-size="" stroke="white">Vulnerability, Vulnerability to climate change</text><circle fill="#999" r="2.5"/><text dy="0.31em" x="-6" text-anchor="end" transform="rotate(180)" font-size="">Vulnerability, Vulnerability to climate change</text></g><g transform="&#10;        rotate(204.8571428571429)&#10;        translate(340.44444444444446,0)&#10;      "><text dy="0.31em" x="-6" text-anchor="end" transform="rotate(180)" font-size="" stroke="white">Spores, Fungal spores</text><circle fill="#999" r="2.5"/><text dy="0.31em" x="-6" text-anchor="end" transform="rotate(180)" font-size="">Spores, Fungal spores</text></g><g transform="&#10;        rotate(198)&#10;        translate(340.44444444444446,0)&#10;      "><text dy="0.31em" x="-6" text-anchor="end" transform="rotate(180)" font-size="" stroke="white">Hantavirus, Hantavirus &amp;  hemorrhagic fever with renal syndrome</text><circle fill="#999" r="2.5"/><text dy="0.31em" x="-6" text-anchor="end" transform="rotate(180)" font-size="">Hantavirus, Hantavirus &amp;  hemorrhagic fever with renal syndrome</text></g><g transform="&#10;        rotate(191.14285714285717)&#10;        translate(340.44444444444446,0)&#10;      "><text dy="0.31em" x="-6" text-anchor="end" transform="rotate(180)" font-size="" stroke="white">Temperature, Diurnal temperature</text><circle fill="#999" r="2.5"/><text dy="0.31em" x="-6" text-anchor="end" transform="rotate(180)" font-size="">Temperature, Diurnal temperature</text></g><g transform="&#10;        rotate(184.28571428571428)&#10;        translate(340.44444444444446,0)&#10;      "><text dy="0.31em" x="-6" text-anchor="end" transform="rotate(180)" font-size="" stroke="white">Cholera, Cholera</text><circle fill="#999" r="2.5"/><text dy="0.31em" x="-6" text-anchor="end" transform="rotate(180)" font-size="">Cholera, Cholera</text></g><g transform="&#10;        rotate(177.4285714285714)&#10;        translate(340.44444444444446,0)&#10;      "><text dy="0.31em" x="-6" text-anchor="end" transform="rotate(180)" font-size="" stroke="white">Suicide, Suicide</text><circle fill="#999" r="2.5"/><text dy="0.31em" x="-6" text-anchor="end" transform="rotate(180)" font-size="">Suicide, Suicide</text></g><g transform="&#10;        rotate(170.5714285714286)&#10;        translate(340.44444444444446,0)&#10;      "><text dy="0.31em" x="6" text-anchor="start" transform="rotate(180)" font-size="" stroke="white">Hydrocarbons, Air pollution</text><circle fill="#555" r="2.5"/><text dy="0.31em" x="6" text-anchor="start" transform="rotate(180)" font-size="">Hydrocarbons, Air pollution</text></g><g transform="&#10;        rotate(163.71428571428572)&#10;        translate(340.44444444444446,0)&#10;      "><text dy="0.31em" x="-6" text-anchor="end" transform="rotate(180)" font-size="" stroke="white">Co-benefits, Mitigation policy co-benefits</text><circle fill="#999" r="2.5"/><text dy="0.31em" x="-6" text-anchor="end" transform="rotate(180)" font-size="">Co-benefits, Mitigation policy co-benefits</text></g><g transform="&#10;        rotate(160.28571428571433)&#10;        translate(340.44444444444446,0)&#10;      "><text dy="0.31em" x="-6" text-anchor="end" transform="rotate(180)" font-size="" stroke="white">Cooking fuel, Cooking fuels &amp; stoves</text><circle fill="#999" r="2.5"/><text dy="0.31em" x="-6" text-anchor="end" transform="rotate(180)" font-size="">Cooking fuel, Cooking fuels &amp; stoves</text></g><g transform="&#10;        rotate(156.85714285714286)&#10;        translate(340.44444444444446,0)&#10;      "><text dy="0.31em" x="-6" text-anchor="end" transform="rotate(180)" font-size="" stroke="white">China, China</text><circle fill="#999" r="2.5"/><text dy="0.31em" x="-6" text-anchor="end" transform="rotate(180)" font-size="">China, China</text></g><g transform="&#10;        rotate(153.42857142857144)&#10;        translate(340.44444444444446,0)&#10;      "><text dy="0.31em" x="-6" text-anchor="end" transform="rotate(180)" font-size="" stroke="white">Cities, Cities</text><circle fill="#999" r="2.5"/><text dy="0.31em" x="-6" text-anchor="end" transform="rotate(180)" font-size="">Cities, Cities</text></g><g transform="&#10;        rotate(150.00000000000003)&#10;        translate(340.44444444444446,0)&#10;      "><text dy="0.31em" x="-6" text-anchor="end" transform="rotate(180)" font-size="" stroke="white">Particulates, Particulate matter</text><circle fill="#999" r="2.5"/><text dy="0.31em" x="-6" text-anchor="end" transform="rotate(180)" font-size="">Particulates, Particulate matter</text></g><g transform="&#10;        rotate(146.57142857142858)&#10;        translate(340.44444444444446,0)&#10;      "><text dy="0.31em" x="-6" text-anchor="end" transform="rotate(180)" font-size="" stroke="white">Air pollution, Air pollution emissions </text><circle fill="#999" r="2.5"/><text dy="0.31em" x="-6" text-anchor="end" transform="rotate(180)" font-size="">Air pollution, Air pollution emissions </text></g><g transform="&#10;        rotate(143.14285714285714)&#10;        translate(340.44444444444446,0)&#10;      "><text dy="0.31em" x="-6" text-anchor="end" transform="rotate(180)" font-size="" stroke="white">Air quality, Air quality</text><circle fill="#999" r="2.5"/><text dy="0.31em" x="-6" text-anchor="end" transform="rotate(180)" font-size="">Air quality, Air quality</text></g><g transform="&#10;        rotate(139.71428571428575)&#10;        translate(340.44444444444446,0)&#10;      "><text dy="0.31em" x="-6" text-anchor="end" transform="rotate(180)" font-size="" stroke="white">Air pollution, Air pollution levels</text><circle fill="#999" r="2.5"/><text dy="0.31em" x="-6" text-anchor="end" transform="rotate(180)" font-size="">Air pollution, Air pollution levels</text></g><g transform="&#10;        rotate(132.85714285714286)&#10;        translate(340.44444444444446,0)&#10;      "><text dy="0.31em" x="-6" text-anchor="end" transform="rotate(180)" font-size="" stroke="white">Drought, Agricultural drought</text><circle fill="#999" r="2.5"/><text dy="0.31em" x="-6" text-anchor="end" transform="rotate(180)" font-size="">Drought, Agricultural drought</text></g><g transform="&#10;        rotate(126)&#10;        translate(340.44444444444446,0)&#10;      "><text dy="0.31em" x="-6" text-anchor="end" transform="rotate(180)" font-size="" stroke="white">Pollen, Pollen &amp; airborne allergens</text><circle fill="#999" r="2.5"/><text dy="0.31em" x="-6" text-anchor="end" transform="rotate(180)" font-size="">Pollen, Pollen &amp; airborne allergens</text></g><g transform="&#10;        rotate(119.14285714285714)&#10;        translate(340.44444444444446,0)&#10;      "><text dy="0.31em" x="-6" text-anchor="end" transform="rotate(180)" font-size="" stroke="white">Leptospirosis, Leptospirosis</text><circle fill="#999" r="2.5"/><text dy="0.31em" x="-6" text-anchor="end" transform="rotate(180)" font-size="">Leptospirosis, Leptospirosis</text></g><g transform="&#10;        rotate(112.2857142857143)&#10;        translate(340.44444444444446,0)&#10;      "><text dy="0.31em" x="-6" text-anchor="end" transform="rotate(180)" font-size="" stroke="white">RSV, Respiratory syncytial virus</text><circle fill="#999" r="2.5"/><text dy="0.31em" x="-6" text-anchor="end" transform="rotate(180)" font-size="">RSV, Respiratory syncytial virus</text></g><g transform="&#10;        rotate(105.42857142857144)&#10;        translate(340.44444444444446,0)&#10;      "><text dy="0.31em" x="-6" text-anchor="end" transform="rotate(180)" font-size="" stroke="white">Stroke, Stroke</text><circle fill="#999" r="2.5"/><text dy="0.31em" x="-6" text-anchor="end" transform="rotate(180)" font-size="">Stroke, Stroke</text></g><g transform="&#10;        rotate(98.57142857142856)&#10;        translate(340.44444444444446,0)&#10;      "><text dy="0.31em" x="-6" text-anchor="end" transform="rotate(180)" font-size="" stroke="white">Influenza, Influenza</text><circle fill="#999" r="2.5"/><text dy="0.31em" x="-6" text-anchor="end" transform="rotate(180)" font-size="">Influenza, Influenza</text></g><g transform="&#10;        rotate(91.71428571428572)&#10;        translate(340.44444444444446,0)&#10;      "><text dy="0.31em" x="-6" text-anchor="end" transform="rotate(180)" font-size="" stroke="white">Fire, Fires &amp; smoke</text><circle fill="#999" r="2.5"/><text dy="0.31em" x="-6" text-anchor="end" transform="rotate(180)" font-size="">Fire, Fires &amp; smoke</text></g><g transform="&#10;        rotate(84.85714285714286)&#10;        translate(340.44444444444446,0)&#10;      "><text dy="0.31em" x="6" text-anchor="start" font-size="" stroke="white">Heatwave, Heatwaves</text><circle fill="#999" r="2.5"/><text dy="0.31em" x="6" text-anchor="start" font-size="">Heatwave, Heatwaves</text></g><g transform="&#10;        rotate(78)&#10;        translate(340.44444444444446,0)&#10;      "><text dy="0.31em" x="6" text-anchor="start" font-size="" stroke="white">Asthma, Asthma </text><circle fill="#999" r="2.5"/><text dy="0.31em" x="6" text-anchor="start" font-size="">Asthma, Asthma </text></g><g transform="&#10;        rotate(71.14285714285714)&#10;        translate(340.44444444444446,0)&#10;      "><text dy="0.31em" x="6" text-anchor="start" font-size="" stroke="white">In-/outdoor, Indoor &amp; outdoor exposure</text><circle fill="#999" r="2.5"/><text dy="0.31em" x="6" text-anchor="start" font-size="">In-/outdoor, Indoor &amp; outdoor exposure</text></g><g transform="&#10;        rotate(64.2857142857143)&#10;        translate(340.44444444444446,0)&#10;      "><text dy="0.31em" x="6" text-anchor="start" font-size="" stroke="white">Inicidence, Disease incidence</text><circle fill="#999" r="2.5"/><text dy="0.31em" x="6" text-anchor="start" font-size="">Inicidence, Disease incidence</text></g><g transform="&#10;        rotate(60.85714285714286)&#10;        translate(340.44444444444446,0)&#10;      "><text dy="0.31em" x="6" text-anchor="start" font-size="" stroke="white">Cases, Cases of disease</text><circle fill="#999" r="2.5"/><text dy="0.31em" x="6" text-anchor="start" font-size="">Cases, Cases of disease</text></g><g transform="&#10;        rotate(57.428571428571445)&#10;        translate(340.44444444444446,0)&#10;      "><text dy="0.31em" x="6" text-anchor="start" font-size="" stroke="white">Meteorology, Meteorological variables</text><circle fill="#999" r="2.5"/><text dy="0.31em" x="6" text-anchor="start" font-size="">Meteorology, Meteorological variables</text></g><g transform="&#10;        rotate(54)&#10;        translate(340.44444444444446,0)&#10;      "><text dy="0.31em" x="6" text-anchor="start" font-size="" stroke="white">Model, Forecasting model</text><circle fill="#999" r="2.5"/><text dy="0.31em" x="6" text-anchor="start" font-size="">Model, Forecasting model</text></g><g transform="&#10;        rotate(50.571428571428584)&#10;        translate(340.44444444444446,0)&#10;      "><text dy="0.31em" x="6" text-anchor="start" font-size="" stroke="white">Seasonality, Seasonal variation</text><circle fill="#999" r="2.5"/><text dy="0.31em" x="6" text-anchor="start" font-size="">Seasonality, Seasonal variation</text></g><g transform="&#10;        rotate(47.14285714285714)&#10;        translate(340.44444444444446,0)&#10;      "><text dy="0.31em" x="-6" text-anchor="end" font-size="" stroke="white">Monthly, Meteorology</text><circle fill="#555" r="2.5"/><text dy="0.31em" x="-6" text-anchor="end" font-size="">Monthly, Meteorology</text></g><g transform="&#10;        rotate(43.714285714285694)&#10;        translate(340.44444444444446,0)&#10;      "><text dy="0.31em" x="6" text-anchor="start" font-size="" stroke="white">Areas, Spatial clustering</text><circle fill="#999" r="2.5"/><text dy="0.31em" x="6" text-anchor="start" font-size="">Areas, Spatial clustering</text></g><g transform="&#10;        rotate(40.285714285714306)&#10;        translate(340.44444444444446,0)&#10;      "><text dy="0.31em" x="6" text-anchor="start" font-size="" stroke="white">Region, Regions and states</text><circle fill="#999" r="2.5"/><text dy="0.31em" x="6" text-anchor="start" font-size="">Region, Regions and states</text></g><g transform="&#10;        rotate(36.85714285714286)&#10;        translate(340.44444444444446,0)&#10;      "><text dy="0.31em" x="6" text-anchor="start" font-size="" stroke="white">Infectious, Infectious disease</text><circle fill="#999" r="2.5"/><text dy="0.31em" x="6" text-anchor="start" font-size="">Infectious, Infectious disease</text></g><g transform="&#10;        rotate(33.42857142857143)&#10;        translate(340.44444444444446,0)&#10;      "><text dy="0.31em" x="6" text-anchor="start" font-size="" stroke="white">Dengue, Dengue fever</text><circle fill="#999" r="2.5"/><text dy="0.31em" x="6" text-anchor="start" font-size="">Dengue, Dengue fever</text></g><g transform="&#10;        rotate(30.000000000000014)&#10;        translate(340.44444444444446,0)&#10;      "><text dy="0.31em" x="6" text-anchor="start" font-size="" stroke="white">Mosquito, Mosquito vectors</text><circle fill="#999" r="2.5"/><text dy="0.31em" x="6" text-anchor="start" font-size="">Mosquito, Mosquito vectors</text></g><g transform="&#10;        rotate(23.142857142857153)&#10;        translate(340.44444444444446,0)&#10;      "><text dy="0.31em" x="6" text-anchor="start" font-size="" stroke="white">Water, Drinking water</text><circle fill="#999" r="2.5"/><text dy="0.31em" x="6" text-anchor="start" font-size="">Water, Drinking water</text></g><g transform="&#10;        rotate(16.285714285714292)&#10;        translate(340.44444444444446,0)&#10;      "><text dy="0.31em" x="6" text-anchor="start" font-size="" stroke="white">Work injury, Work-related injuries</text><circle fill="#999" r="2.5"/><text dy="0.31em" x="6" text-anchor="start" font-size="">Work injury, Work-related injuries</text></g><g transform="&#10;        rotate(9.42857142857143)&#10;        translate(340.44444444444446,0)&#10;      "><text dy="0.31em" x="6" text-anchor="start" font-size="" stroke="white">Ozone, Ozone concentrations</text><circle fill="#999" r="2.5"/><text dy="0.31em" x="6" text-anchor="start" font-size="">Ozone, Ozone concentrations</text></g><g transform="&#10;        rotate(2.5714285714285694)&#10;        translate(340.44444444444446,0)&#10;      "><text dy="0.31em" x="6" text-anchor="start" font-size="" stroke="white">Dust storm, Dust storms</text><circle fill="#999" r="2.5"/><text dy="0.31em" x="6" text-anchor="start" font-size="">Dust storm, Dust storms</text></g><g transform="&#10;        rotate(-4.285714285714278)&#10;        translate(340.44444444444446,0)&#10;      "><text dy="0.31em" x="6" text-anchor="start" font-size="" stroke="white">HFMD, Hand-foot-and-mouth disease</text><circle fill="#999" r="2.5"/><text dy="0.31em" x="6" text-anchor="start" font-size="">HFMD, Hand-foot-and-mouth disease</text></g><g transform="&#10;        rotate(-11.142857142857139)&#10;        translate(340.44444444444446,0)&#10;      "><text dy="0.31em" x="6" text-anchor="start" font-size="" stroke="white">Birth, Birth &amp; pregnancy</text><circle fill="#999" r="2.5"/><text dy="0.31em" x="6" text-anchor="start" font-size="">Birth, Birth &amp; pregnancy</text></g><g transform="&#10;        rotate(-18)&#10;        translate(340.44444444444446,0)&#10;      "><text dy="0.31em" x="6" text-anchor="start" font-size="" stroke="white">Patients, Patients</text><circle fill="#999" r="2.5"/><text dy="0.31em" x="6" text-anchor="start" font-size="">Patients, Patients</text></g><g transform="&#10;        rotate(-24.857142857142847)&#10;        translate(340.44444444444446,0)&#10;      "><text dy="0.31em" x="6" text-anchor="start" font-size="" stroke="white">Flood, Flood &amp; Dysintery</text><circle fill="#999" r="2.5"/><text dy="0.31em" x="6" text-anchor="start" font-size="">Flood, Flood &amp; Dysintery</text></g><g transform="&#10;        rotate(-31.714285714285715)&#10;        translate(340.44444444444446,0)&#10;      "><text dy="0.31em" x="6" text-anchor="start" font-size="" stroke="white">RCP, Climate change emission pathways</text><circle fill="#999" r="2.5"/><text dy="0.31em" x="6" text-anchor="start" font-size="">RCP, Climate change emission pathways</text></g><g transform="&#10;        rotate(-38.57142857142857)&#10;        translate(340.44444444444446,0)&#10;      "><text dy="0.31em" x="6" text-anchor="start" font-size="" stroke="white">Emergency dept., Emergency department visits</text><circle fill="#999" r="2.5"/><text dy="0.31em" x="6" text-anchor="start" font-size="">Emergency dept., Emergency department visits</text></g><g transform="&#10;        rotate(-45.42857142857143)&#10;        translate(340.44444444444446,0)&#10;      "><text dy="0.31em" x="6" text-anchor="start" font-size="" stroke="white">Extreme weather, Extreme weather events</text><circle fill="#999" r="2.5"/><text dy="0.31em" x="6" text-anchor="start" font-size="">Extreme weather, Extreme weather events</text></g><g transform="&#10;        rotate(-48.857142857142854)&#10;        translate(340.44444444444446,0)&#10;      "><text dy="0.31em" x="6" text-anchor="start" font-size="" stroke="white">Risk, Risk</text><circle fill="#999" r="2.5"/><text dy="0.31em" x="6" text-anchor="start" font-size="">Risk, Risk</text></g><g transform="&#10;        rotate(-52.285714285714285)&#10;        translate(340.44444444444446,0)&#10;      "><text dy="0.31em" x="6" text-anchor="start" font-size="" stroke="white">Daily, Daily data &amp; trends</text><circle fill="#999" r="2.5"/><text dy="0.31em" x="6" text-anchor="start" font-size="">Daily, Daily data &amp; trends</text></g><g transform="&#10;        rotate(-55.714285714285715)&#10;        translate(340.44444444444446,0)&#10;      "><text dy="0.31em" x="6" text-anchor="start" font-size="" stroke="white">Mortality, Mortality</text><circle fill="#999" r="2.5"/><text dy="0.31em" x="6" text-anchor="start" font-size="">Mortality, Mortality</text></g><g transform="&#10;        rotate(-59.14285714285714)&#10;        translate(340.44444444444446,0)&#10;      "><text dy="0.31em" x="6" text-anchor="start" font-size="" stroke="white">Cold, Cold spells</text><circle fill="#999" r="2.5"/><text dy="0.31em" x="6" text-anchor="start" font-size="">Cold, Cold spells</text></g><g transform="&#10;        rotate(-62.57142857142857)&#10;        translate(340.44444444444446,0)&#10;      "><text dy="0.31em" x="6" text-anchor="start" font-size="" stroke="white">Association, Statistical association</text><circle fill="#999" r="2.5"/><text dy="0.31em" x="6" text-anchor="start" font-size="">Association, Statistical association</text></g><g transform="&#10;        rotate(-66)&#10;        translate(340.44444444444446,0)&#10;      "><text dy="0.31em" x="6" text-anchor="start" font-size="" stroke="white">CVD, Cardiovascular disease</text><circle fill="#999" r="2.5"/><text dy="0.31em" x="6" text-anchor="start" font-size="">CVD, Cardiovascular disease</text></g><g transform="&#10;        rotate(-69.42857142857143)&#10;        translate(340.44444444444446,0)&#10;      "><text dy="0.31em" x="6" text-anchor="start" font-size="" stroke="white">Statistics, Statistical lag</text><circle fill="#999" r="2.5"/><text dy="0.31em" x="6" text-anchor="start" font-size="">Statistics, Statistical lag</text></g><g transform="&#10;        rotate(-72.85714285714286)&#10;        translate(340.44444444444446,0)&#10;      "><text dy="0.31em" x="6" text-anchor="start" font-size="" stroke="white">Temperature, Ambient temperature</text><circle fill="#999" r="2.5"/><text dy="0.31em" x="6" text-anchor="start" font-size="">Temperature, Ambient temperature</text></g><g transform="&#10;        rotate(-76.28571428571429)&#10;        translate(340.44444444444446,0)&#10;      "><text dy="0.31em" x="6" text-anchor="start" font-size="" stroke="white">Death, Excess deaths</text><circle fill="#999" r="2.5"/><text dy="0.31em" x="6" text-anchor="start" font-size="">Death, Excess deaths</text></g><g transform="&#10;        rotate(-79.71428571428571)&#10;        translate(340.44444444444446,0)&#10;      "><text dy="0.31em" x="6" text-anchor="start" font-size="" stroke="white">Hospital, Hospital admissions</text><circle fill="#999" r="2.5"/><text dy="0.31em" x="6" text-anchor="start" font-size="">Hospital, Hospital admissions</text></g><g transform="&#10;        rotate(-83.14285714285714)&#10;        translate(340.44444444444446,0)&#10;      "><text dy="0.31em" x="6" text-anchor="start" font-size="" stroke="white">Respiratory, Respiratory &amp; cardiovascular</text><circle fill="#999" r="2.5"/><text dy="0.31em" x="6" text-anchor="start" font-size="">Respiratory, Respiratory &amp; cardiovascular</text></g><g transform="&#10;        rotate(-86.57142857142857)&#10;        translate(340.44444444444446,0)&#10;      "><text dy="0.31em" x="6" text-anchor="start" font-size="" stroke="white">Exposure, Exposure to pollution</text><circle fill="#999" r="2.5"/><text dy="0.31em" x="6" text-anchor="start" font-size="">Exposure, Exposure to pollution</text></g><g transform="&#10;        rotate(266.57142857142856)&#10;        translate(170.22222222222223,0)&#10;      "><text dy="0.31em" x="6" text-anchor="start" transform="rotate(180)" font-size="15px" stroke="white">9</text><circle fill="#555" r="2.5"/><text dy="0.31em" x="6" text-anchor="start" transform="rotate(180)" font-size="15px">9</text></g><g transform="&#10;        rotate(259.7142857142857)&#10;        translate(170.22222222222223,0)&#10;      "><text dy="0.31em" x="6" text-anchor="start" transform="rotate(180)" font-size="15px" stroke="white">8</text><circle fill="#555" r="2.5"/><text dy="0.31em" x="6" text-anchor="start" transform="rotate(180)" font-size="15px">8</text></g><g transform="&#10;        rotate(251.14285714285717)&#10;        translate(170.22222222222223,0)&#10;      "><text dy="0.31em" x="6" text-anchor="start" transform="rotate(180)" font-size="15px" stroke="white">7</text><circle fill="#555" r="2.5"/><text dy="0.31em" x="6" text-anchor="start" transform="rotate(180)" font-size="15px">7</text></g><g transform="&#10;        rotate(242.57142857142856)&#10;        translate(170.22222222222223,0)&#10;      "><text dy="0.31em" x="6" text-anchor="start" transform="rotate(180)" font-size="15px" stroke="white">6</text><circle fill="#555" r="2.5"/><text dy="0.31em" x="6" text-anchor="start" transform="rotate(180)" font-size="15px">6</text></g><g transform="&#10;        rotate(234)&#10;        translate(170.22222222222223,0)&#10;      "><text dy="0.31em" x="6" text-anchor="start" transform="rotate(180)" font-size="15px" stroke="white">5</text><circle fill="#555" r="2.5"/><text dy="0.31em" x="6" text-anchor="start" transform="rotate(180)" font-size="15px">5</text></g><g transform="&#10;        rotate(218.5714285714286)&#10;        translate(170.22222222222223,0)&#10;      "><text dy="0.31em" x="6" text-anchor="start" transform="rotate(180)" font-size="15px" stroke="white">4</text><circle fill="#555" r="2.5"/><text dy="0.31em" x="6" text-anchor="start" transform="rotate(180)" font-size="15px">4</text></g><g transform="&#10;        rotate(204.8571428571429)&#10;        translate(170.22222222222223,0)&#10;      "><text dy="0.31em" x="6" text-anchor="start" transform="rotate(180)" font-size="15px" stroke="white">35</text><circle fill="#555" r="2.5"/><text dy="0.31em" x="6" text-anchor="start" transform="rotate(180)" font-size="15px">35</text></g><g transform="&#10;        rotate(198)&#10;        translate(170.22222222222223,0)&#10;      "><text dy="0.31em" x="6" text-anchor="start" transform="rotate(180)" font-size="15px" stroke="white">34</text><circle fill="#555" r="2.5"/><text dy="0.31em" x="6" text-anchor="start" transform="rotate(180)" font-size="15px">34</text></g><g transform="&#10;        rotate(191.14285714285717)&#10;        translate(170.22222222222223,0)&#10;      "><text dy="0.31em" x="6" text-anchor="start" transform="rotate(180)" font-size="15px" stroke="white">33</text><circle fill="#555" r="2.5"/><text dy="0.31em" x="6" text-anchor="start" transform="rotate(180)" font-size="15px">33</text></g><g transform="&#10;        rotate(184.28571428571428)&#10;        translate(170.22222222222223,0)&#10;      "><text dy="0.31em" x="6" text-anchor="start" transform="rotate(180)" font-size="15px" stroke="white">32</text><circle fill="#555" r="2.5"/><text dy="0.31em" x="6" text-anchor="start" transform="rotate(180)" font-size="15px">32</text></g><g transform="&#10;        rotate(177.4285714285714)&#10;        translate(170.22222222222223,0)&#10;      "><text dy="0.31em" x="6" text-anchor="start" transform="rotate(180)" font-size="15px" stroke="white">31</text><circle fill="#555" r="2.5"/><text dy="0.31em" x="6" text-anchor="start" transform="rotate(180)" font-size="15px">31</text></g><g transform="&#10;        rotate(170.5714285714286)&#10;        translate(170.22222222222223,0)&#10;      "><text dy="0.31em" x="6" text-anchor="start" transform="rotate(180)" font-size="15px" stroke="white">30</text><circle fill="#555" r="2.5"/><text dy="0.31em" x="6" text-anchor="start" transform="rotate(180)" font-size="15px">30</text></g><g transform="&#10;        rotate(151.7142857142857)&#10;        translate(170.22222222222223,0)&#10;      "><text dy="0.31em" x="6" text-anchor="start" transform="rotate(180)" font-size="15px" stroke="white">3</text><circle fill="#555" r="2.5"/><text dy="0.31em" x="6" text-anchor="start" transform="rotate(180)" font-size="15px">3</text></g><g transform="&#10;        rotate(132.85714285714286)&#10;        translate(170.22222222222223,0)&#10;      "><text dy="0.31em" x="6" text-anchor="start" transform="rotate(180)" font-size="15px" stroke="white">29</text><circle fill="#555" r="2.5"/><text dy="0.31em" x="6" text-anchor="start" transform="rotate(180)" font-size="15px">29</text></g><g transform="&#10;        rotate(126)&#10;        translate(170.22222222222223,0)&#10;      "><text dy="0.31em" x="6" text-anchor="start" transform="rotate(180)" font-size="15px" stroke="white">28</text><circle fill="#555" r="2.5"/><text dy="0.31em" x="6" text-anchor="start" transform="rotate(180)" font-size="15px">28</text></g><g transform="&#10;        rotate(119.14285714285714)&#10;        translate(170.22222222222223,0)&#10;      "><text dy="0.31em" x="6" text-anchor="start" transform="rotate(180)" font-size="15px" stroke="white">27</text><circle fill="#555" r="2.5"/><text dy="0.31em" x="6" text-anchor="start" transform="rotate(180)" font-size="15px">27</text></g><g transform="&#10;        rotate(112.2857142857143)&#10;        translate(170.22222222222223,0)&#10;      "><text dy="0.31em" x="6" text-anchor="start" transform="rotate(180)" font-size="15px" stroke="white">26</text><circle fill="#555" r="2.5"/><text dy="0.31em" x="6" text-anchor="start" transform="rotate(180)" font-size="15px">26</text></g><g transform="&#10;        rotate(105.42857142857144)&#10;        translate(170.22222222222223,0)&#10;      "><text dy="0.31em" x="6" text-anchor="start" transform="rotate(180)" font-size="15px" stroke="white">25</text><circle fill="#555" r="2.5"/><text dy="0.31em" x="6" text-anchor="start" transform="rotate(180)" font-size="15px">25</text></g><g transform="&#10;        rotate(98.57142857142856)&#10;        translate(170.22222222222223,0)&#10;      "><text dy="0.31em" x="6" text-anchor="start" transform="rotate(180)" font-size="15px" stroke="white">24</text><circle fill="#555" r="2.5"/><text dy="0.31em" x="6" text-anchor="start" transform="rotate(180)" font-size="15px">24</text></g><g transform="&#10;        rotate(91.71428571428572)&#10;        translate(170.22222222222223,0)&#10;      "><text dy="0.31em" x="6" text-anchor="start" transform="rotate(180)" font-size="15px" stroke="white">23</text><circle fill="#555" r="2.5"/><text dy="0.31em" x="6" text-anchor="start" transform="rotate(180)" font-size="15px">23</text></g><g transform="&#10;        rotate(84.85714285714286)&#10;        translate(170.22222222222223,0)&#10;      "><text dy="0.31em" x="-6" text-anchor="end" font-size="15px" stroke="white">22</text><circle fill="#555" r="2.5"/><text dy="0.31em" x="-6" text-anchor="end" font-size="15px">22</text></g><g transform="&#10;        rotate(78)&#10;        translate(170.22222222222223,0)&#10;      "><text dy="0.31em" x="-6" text-anchor="end" font-size="15px" stroke="white">21</text><circle fill="#555" r="2.5"/><text dy="0.31em" x="-6" text-anchor="end" font-size="15px">21</text></g><g transform="&#10;        rotate(71.14285714285714)&#10;        translate(170.22222222222223,0)&#10;      "><text dy="0.31em" x="-6" text-anchor="end" font-size="15px" stroke="white">20</text><circle fill="#555" r="2.5"/><text dy="0.31em" x="-6" text-anchor="end" font-size="15px">20</text></g><g transform="&#10;        rotate(47.14285714285714)&#10;        translate(170.22222222222223,0)&#10;      "><text dy="0.31em" x="-6" text-anchor="end" font-size="15px" stroke="white">2</text><circle fill="#555" r="2.5"/><text dy="0.31em" x="-6" text-anchor="end" font-size="15px">2</text></g><g transform="&#10;        rotate(23.142857142857153)&#10;        translate(170.22222222222223,0)&#10;      "><text dy="0.31em" x="-6" text-anchor="end" font-size="15px" stroke="white">19</text><circle fill="#555" r="2.5"/><text dy="0.31em" x="-6" text-anchor="end" font-size="15px">19</text></g><g transform="&#10;        rotate(16.285714285714292)&#10;        translate(170.22222222222223,0)&#10;      "><text dy="0.31em" x="-6" text-anchor="end" font-size="15px" stroke="white">18</text><circle fill="#555" r="2.5"/><text dy="0.31em" x="-6" text-anchor="end" font-size="15px">18</text></g><g transform="&#10;        rotate(9.42857142857143)&#10;        translate(170.22222222222223,0)&#10;      "><text dy="0.31em" x="-6" text-anchor="end" font-size="15px" stroke="white">17</text><circle fill="#555" r="2.5"/><text dy="0.31em" x="-6" text-anchor="end" font-size="15px">17</text></g><g transform="&#10;        rotate(2.5714285714285694)&#10;        translate(170.22222222222223,0)&#10;      "><text dy="0.31em" x="-6" text-anchor="end" font-size="15px" stroke="white">16</text><circle fill="#555" r="2.5"/><text dy="0.31em" x="-6" text-anchor="end" font-size="15px">16</text></g><g transform="&#10;        rotate(-4.285714285714278)&#10;        translate(170.22222222222223,0)&#10;      "><text dy="0.31em" x="-6" text-anchor="end" font-size="15px" stroke="white">15</text><circle fill="#555" r="2.5"/><text dy="0.31em" x="-6" text-anchor="end" font-size="15px">15</text></g><g transform="&#10;        rotate(-11.142857142857139)&#10;        translate(170.22222222222223,0)&#10;      "><text dy="0.31em" x="-6" text-anchor="end" font-size="15px" stroke="white">14</text><circle fill="#555" r="2.5"/><text dy="0.31em" x="-6" text-anchor="end" font-size="15px">14</text></g><g transform="&#10;        rotate(-18)&#10;        translate(170.22222222222223,0)&#10;      "><text dy="0.31em" x="-6" text-anchor="end" font-size="15px" stroke="white">13</text><circle fill="#555" r="2.5"/><text dy="0.31em" x="-6" text-anchor="end" font-size="15px">13</text></g><g transform="&#10;        rotate(-24.857142857142847)&#10;        translate(170.22222222222223,0)&#10;      "><text dy="0.31em" x="-6" text-anchor="end" font-size="15px" stroke="white">12</text><circle fill="#555" r="2.5"/><text dy="0.31em" x="-6" text-anchor="end" font-size="15px">12</text></g><g transform="&#10;        rotate(-31.714285714285715)&#10;        translate(170.22222222222223,0)&#10;      "><text dy="0.31em" x="-6" text-anchor="end" font-size="15px" stroke="white">11</text><circle fill="#555" r="2.5"/><text dy="0.31em" x="-6" text-anchor="end" font-size="15px">11</text></g><g transform="&#10;        rotate(-38.57142857142857)&#10;        translate(170.22222222222223,0)&#10;      "><text dy="0.31em" x="-6" text-anchor="end" font-size="15px" stroke="white">10</text><circle fill="#555" r="2.5"/><text dy="0.31em" x="-6" text-anchor="end" font-size="15px">10</text></g><g transform="&#10;        rotate(-66)&#10;        translate(170.22222222222223,0)&#10;      "><text dy="0.31em" x="-6" text-anchor="end" font-size="15px" stroke="white">1</text><circle fill="#555" r="2.5"/><text dy="0.31em" x="-6" text-anchor="end" font-size="15px">1</text></g><g transform="&#10;        rotate(100.28571428571428)&#10;        translate(0,0)&#10;      "><text dy="0.31em" x="6" text-anchor="start" transform="rotate(180)" font-size="15px" stroke="white"/><circle fill="#555" r="2.5"/><text dy="0.31em" x="6" text-anchor="start" transform="rotate(180)" font-size="15px"/></g></g></svg>